<svg height="280.37" viewBox="0 0 378.45 280.37" width="378.45" xmlns="http://www.w3.org/2000/svg"><g transform="translate(0 -.02)"><path d="m368.34 229.73h6.04v2.17h-3.38v4.25h3v2.05h-3v4.61h3.35v2.17h-6.01z" fill="#0055a1"/><path d="m186.76 71.32 31.47 28.08a1.76 1.76 0 0 0 2.14.17 1.74 1.74 0 0 0 .72-2l-30.09-96.33a1.76 1.76 0 0 0 -3.35 0l-23 68.23a1.74 1.74 0 0 0 1.66 2.32h21.64a1.79 1.79 0 0 1 -1.19-.47z" fill="#d82f33"/><path d="m229.56 99.57-16.56 38.79a1.76 1.76 0 0 0 2.66 2.11l81.72-59.24a1.76 1.76 0 0 0 -1-3.19h-72a1.78 1.78 0 0 0 -1.43.73 1.76 1.76 0 0 0 -.23 1.6l6.88 20.46a1.77 1.77 0 0 1 -.04-1.26z" fill="#e16a03"/><path d="m147.78 103 36.22-21.68a1.77 1.77 0 0 0 -.91-3.28h-100.95a1.76 1.76 0 0 0 -1 3.19l58.31 42.32a1.75 1.75 0 0 0 2.71-.9l6.4-20.65a1.75 1.75 0 0 1 -.78 1z" fill="#0055a1"/><path d="m164.82 150.53-9.25-41.16a1.76 1.76 0 0 0 -3.4-.14l-30.17 96.28a1.76 1.76 0 0 0 2.73 2l57.06-42.55a1.77 1.77 0 0 0 .71-1.44 1.75 1.75 0 0 0 -.74-1.4l-17.59-12.59a1.68 1.68 0 0 1 .65 1z" fill="#007d32"/><path d="m214.45 148-42-4a1.8 1.8 0 0 0 -1.82 1.13 1.76 1.76 0 0 0 .6 2l81.22 59.87a1.77 1.77 0 0 0 2.73-2l-21.77-68.63a1.79 1.79 0 0 0 -1.14-1.15 1.74 1.74 0 0 0 -1.58.25l-17.45 12.83a1.83 1.83 0 0 1 1.21-.3z" fill="#d82f33"/><g fill="#0055a1"><path d="m0 242.62a4.12 4.12 0 0 0 2.6 1.1 1.65 1.65 0 0 0 1.86-1.62 2.14 2.14 0 0 0 -.19-.87 9 9 0 0 0 -1.75-2.53c-.92-1.13-1.11-1.39-1.5-1.93a4.66 4.66 0 0 1 -1-2.85 3.55 3.55 0 0 1 3.85-3.73 5.39 5.39 0 0 1 3 .86v2.44a3.89 3.89 0 0 0 -2.51-1.13 1.61 1.61 0 0 0 -1.65 1.64 2.8 2.8 0 0 0 .39 1.28 14.79 14.79 0 0 0 1.44 1.92 18.432 18.432 0 0 1 1.56 2 4.68 4.68 0 0 1 1 2.9 3.83 3.83 0 0 1 -4.1 3.9 5.33 5.33 0 0 1 -3-.84z"/><path d="m25.88 238.12c0 3.7.81 5.72 2.27 5.72s2.28-2 2.28-5.72-.77-5.73-2.26-5.73-2.29 1.99-2.29 5.73zm2.29-7.9c3.12 0 4.94 2.87 4.94 7.9s-1.82 7.93-4.94 7.93-5-2.89-5-7.93 1.83-7.9 5-7.9z"/><path d="m56.75 233.09a3.36 3.36 0 0 0 -2-.68c-1.81 0-2.7 2-2.7 6 0 3.59.89 5.34 2.67 5.34a3.11 3.11 0 0 0 1.95-.71v2.21a4.35 4.35 0 0 1 -2.46.72c-3.08 0-4.82-2.73-4.82-7.59 0-5.32 1.77-8.19 5-8.19a4.37 4.37 0 0 1 2.33.65z"/><path d="m73.12 230.49h2.66v15.25h-2.66z"/><path d="m96.31 226.07 3.17-.06-3 2.78h-2.37zm-3.45 4.42h6v2.17h-3.33v4.25h3v2.09h-3v4.61h3.34v2.17h-6z"/><path d="m114.34 230.49h7.85v2.17h-2.62v13.08h-2.65v-13.08h-2.58z"/><path d="m141.53 226.07 3.18-.06-3 2.78h-2.37zm-3.44 4.42h6v2.17h-3.38v4.25h3v2.09h-3v4.61h3.36v2.17h-6z"/><path d="m182.33 230.49h2.68l4.04 10.3v-10.3h2.62v15.25h-2.62l-4.11-9.89v9.89h-2.61z"/><path d="m211 241h2.86l-1.36-6.91zm.18-10.49h2.76l3.33 15.25h-2.65l-.52-2.71h-3.42l-.59 2.71h-2.59z"/><path d="m230.97 230.49h7.85v2.17h-2.61v13.08h-2.66v-13.08h-2.58z"/><path d="m254.57 230.49h2.66v15.25h-2.66z"/><path d="m276.44 238.12c0 3.7.8 5.72 2.27 5.72s2.28-2 2.28-5.72-.79-5.73-2.27-5.73-2.28 1.99-2.28 5.73zm2.28-7.9c3.12 0 4.95 2.87 4.95 7.9s-1.83 7.93-4.95 7.93-5-2.89-5-7.93 1.85-7.9 5-7.9z"/><path d="m300.21 230.49h2.67l4.05 10.3v-10.3h2.62v15.25h-2.62l-4.11-9.89v9.89h-2.61z"/><path d="m328.83 241h2.85l-1.35-6.91zm.17-10.49h2.77l3.33 15.25h-2.66l-.52-2.71h-3.42l-.58 2.71h-2.6z"/><path d="m350.85 230.49h2.65v13.08h3.26v2.17h-5.91z"/><path d="m3.2 277.42h.36c2.82 0 4.24-2.1 4.24-6.32s-1.36-6.19-4.19-6.19h-.41zm-3.2-15.22h3.27c5.05 0 7.64 3 7.64 8.85s-2.59 8.95-7.77 8.95h-3.14z"/><path d="m14.36 262.2h7.25v2.53h-4.06v4.96h3.61v2.4h-3.61v5.38h4.04v2.52h-7.23z"/><path d="m36.91 270.71h.42c1.57 0 2.36-.27 3-1a3.45 3.45 0 0 0 .75-2.27c0-2-1.09-2.84-3.71-2.84a3.059 3.059 0 0 0 -.47 0zm-3.19-8.51h4.28c4.09 0 6.22 1.8 6.22 5.21a4.71 4.71 0 0 1 -3.31 4.76l4.21 7.83h-3.48l-3.43-7.19a7.187 7.187 0 0 1 -.78.06h-.52v7.13h-3.19z"/><path d="m50.48 274.43h3.43l-1.62-8zm.21-12.23h3.31l4 17.8h-3.17l-.63-3.16h-4.11l-.7 3.16h-3.11z"/><path d="m63.69 277.42h.37c2.82 0 4.23-2.1 4.23-6.32s-1.35-6.19-4.18-6.19h-.42zm-3.18-15.22h3.26c5 0 7.64 3 7.64 8.85s-2.6 8.95-7.77 8.95h-3.13z"/><path d="m74.86 262.2h3.2v17.79h-3.2z"/><path d="m84.7 271.1c0 4.33 1 6.66 2.71 6.66s2.75-2.31 2.75-6.66-.94-6.69-2.72-6.69-2.74 2.33-2.74 6.69zm2.74-9.22c3.74 0 5.94 3.35 5.94 9.22s-2.2 9.25-5.94 9.25-6-3.38-6-9.25 2.21-9.22 6-9.22z"/><path d="m100 277.42h.37c2.82 0 4.23-2.1 4.23-6.32s-1.35-6.19-4.18-6.19h-.42zm-3.19-15.22h3.27c5 0 7.63 3 7.63 8.85s-2.58 8.95-7.71 8.95h-3.19z"/><path d="m111.17 262.2h3.19v17.79h-3.19z"/><path d="m118.25 262.2h7.41v2.53h-4.21v5.31h3.66v2.52h-3.66v7.43h-3.2z"/><path d="m128.19 262.2h7.41v2.53h-4.21v5.31h3.66v2.52h-3.66v7.43h-3.2z"/><path d="m149 275.43a7.761 7.761 0 0 1 -.14 1.75c-.42 2.05-2.33 3.2-5.31 3.2a6.22 6.22 0 0 1 -4.31-1.4c-.81-.77-1.07-1.68-1.07-3.55v-13.23h3.19v13.12a5.28 5.28 0 0 0 .08 1.12 2 2 0 0 0 2.11 1.35 2.59 2.59 0 0 0 1.72-.57c.4-.35.53-.78.53-1.9v-13.12h3.2z"/><path d="m152.11 276.36a5 5 0 0 0 3.13 1.28 2 2 0 0 0 2.23-1.9 2.46 2.46 0 0 0 -.25-1 10 10 0 0 0 -2.08-3c-1.1-1.31-1.34-1.6-1.81-2.24a5.35 5.35 0 0 1 -1.16-3.34c0-2.64 1.81-4.34 4.65-4.34a6.5 6.5 0 0 1 3.52 1v2.83a4.72 4.72 0 0 0 -3-1.3 1.92 1.92 0 0 0 -2 1.85 3.26 3.26 0 0 0 .47 1.49 18.248 18.248 0 0 0 1.73 2.24 18.488 18.488 0 0 1 1.88 2.37 5.33 5.33 0 0 1 1.23 3.38c0 2.72-2 4.62-4.92 4.62a6.56 6.56 0 0 1 -3.62-1z"/><path d="m163.82 262.2h3.19v17.79h-3.19z"/><path d="m173.66 271.1c0 4.33 1 6.66 2.71 6.66s2.74-2.31 2.74-6.66-.93-6.69-2.71-6.69-2.74 2.33-2.74 6.69zm2.74-9.22c3.74 0 5.94 3.35 5.94 9.22s-2.2 9.25-5.94 9.25-6-3.38-6-9.25 2.21-9.22 6-9.22z"/><path d="m185.76 262.2h3.22l4.87 12.01v-12.01h3.13v17.79h-3.13l-4.95-11.53v11.53h-3.14z"/><path d="m209.64 262.2h7.25v2.53h-4.05v4.96h3.61v2.4h-3.61v5.38h4.02v2.52h-7.22z"/><path d="m218.83 262.2h9.42v2.53h-3.15v15.26h-3.19v-15.26h-3.08z"/><path d="m242.68 277.42h.32c2.83 0 4.24-2.1 4.24-6.32s-1.36-6.19-4.18-6.19h-.42zm-3.19-15.22h3.27c5.05 0 7.63 3 7.63 8.85s-2.58 8.94-7.76 8.94h-3.14z"/><path d="m253.84 262.2h7.25v2.53h-4.05v4.96h3.6v2.4h-3.6v5.38h4.02v2.52h-7.22z"/><path d="m271.8 262.2h9.4v2.53h-3.13v15.26h-3.19v-15.26h-3.08z"/><path d="m287.83 257.05 3.81-.08-3.64 3.25h-2.84zm-4.14 5.15h7.25v2.53h-4.07v5h3.62v2.4h-3.62v5.38h4v2.49h-7.22z"/><path d="m294.28 262.2h3.19v15.27h3.9v2.52h-7.09z"/><path d="m307.89 257.05 3.82-.08-3.62 3.25h-2.86zm-4.14 5.15h7.25v2.53h-4.05v5h3.62v2.4h-3.62v5.38h4v2.49h-7.21z"/><path d="m316.05 262.2 2.77 13.58 2.95-13.58h3.11l-4.36 17.79h-3.42l-4.32-17.79z"/><path d="m327.23 262.2h3.19v17.79h-3.19z"/><path d="m333.57 276.36a5.05 5.05 0 0 0 3.13 1.28 2 2 0 0 0 2.23-1.9 2.58 2.58 0 0 0 -.23-1 10.579 10.579 0 0 0 -2.09-3c-1.1-1.31-1.34-1.6-1.82-2.24a5.39 5.39 0 0 1 -1.15-3.34c0-2.64 1.81-4.34 4.64-4.34a6.51 6.51 0 0 1 3.53 1v2.83a4.74 4.74 0 0 0 -3-1.3 1.92 1.92 0 0 0 -2 1.85 3.17 3.17 0 0 0 .48 1.49 15.922 15.922 0 0 0 1.71 2.31 19.429 19.429 0 0 1 1.88 2.37 5.33 5.33 0 0 1 1.23 3.38 4.555 4.555 0 0 1 -4.91 4.62 6.61 6.61 0 0 1 -3.64-1z"/><path d="m345.29 262.2h3.19v17.79h-3.19z"/><path d="m355.12 271.1c0 4.33 1 6.66 2.72 6.66s2.75-2.31 2.75-6.66-.94-6.69-2.72-6.69-2.75 2.33-2.75 6.69zm2.75-9.22c3.74 0 5.94 3.35 5.94 9.22s-2.2 9.25-5.94 9.25-6-3.38-6-9.25 2.21-9.22 6-9.22z"/><path d="m367.23 262.2h3.21l4.87 12.01v-12.01h3.14v17.79h-3.14l-4.93-11.53v11.53h-3.15z"/></g></g></svg>